{
.appVersion = "113";
copyright = "Copyright © 2021 Shiki Suen";
date = "2021-06-26 10:38:06 +0000";
designer = "Shiki Suen";
designerURL = "https://soundcloud.com/shikisuen";
familyName = "Yuzuri-RomanNumerals";
featurePrefixes = (
{
automatic = 1;
code = "languagesystem DFLT dflt;\012";
name = Languagesystems;
}
);
fontMaster = (
{
alignmentZones = (
"{715, 1}",
"{700, 0}",
"{400, 15}",
"{0, -15}",
"{-200, -15}"
);
ascender = 500;
capHeight = 500;
descender = -100;
id = "BFEE9DAF-128A-4837-A794-4F7CE36BEEBE";
weightValue = 400;
widthValue = 5;
xHeight = 450;
}
);
glyphs = (
{
glyphname = B;
lastChange = "2021-06-26 10:33:50 +0000";
layers = (
{
hints = (
{
horizontal = 1;
place = "{0, 50}";
type = Stem;
},
{
horizontal = 1;
place = "{532, 39}";
type = Stem;
},
{
place = "{63, 674}";
type = Stem;
}
);
layerId = "BFEE9DAF-128A-4837-A794-4F7CE36BEEBE";
paths = (
{
closed = 1;
nodes = (
"598 571 LINE",
"402 80 LINE",
"225 571 LINE",
"110 571 LINE",
"329 0 LINE",
"440 0 LINE",
"656 571 LINE"
);
}
);
width = 800;
}
);
note = T;
unicode = 0042;
},
{
glyphname = C;
lastChange = "2021-06-26 10:09:40 +0000";
layers = (
{
hints = (
{
horizontal = 1;
place = "{0, 40}";
type = Stem;
},
{
horizontal = 1;
place = "{532, 39}";
type = Stem;
},
{
place = "{168, 61}";
type = Stem;
},
{
place = "{369, 63}";
type = Stem;
},
{
place = "{572, 61}";
type = Stem;
}
);
layerId = "BFEE9DAF-128A-4837-A794-4F7CE36BEEBE";
paths = (
{
closed = 1;
nodes = (
"561 0 LINE",
"650 0 LINE",
"650 571 LINE",
"561 571 LINE"
);
},
{
closed = 1;
nodes = (
"355 571 LINE",
"446 571 LINE",
"446 0 LINE",
"355 0 LINE"
);
},
{
closed = 1;
nodes = (
"151 571 LINE",
"240 571 LINE",
"240 0 LINE",
"151 0 LINE"
);
}
);
width = 800;
}
);
note = E;
unicode = 0043;
},
{
glyphname = E;
lastChange = "2021-06-26 10:31:16 +0000";
layers = (
{
hints = (
{
horizontal = 1;
place = "{0, 40}";
type = Stem;
},
{
horizontal = 1;
place = "{532, 39}";
type = Stem;
},
{
place = "{168, 61}";
type = Stem;
},
{
place = "{369, 63}";
type = Stem;
},
{
place = "{572, 61}";
type = Stem;
}
);
layerId = "BFEE9DAF-128A-4837-A794-4F7CE36BEEBE";
paths = (
{
closed = 1;
nodes = (
"720 70 LINE",
"650 70 LINE",
"650 522 LINE",
"720 522 LINE",
"720 571 LINE",
"80 571 LINE",
"80 522 LINE",
"151 522 LINE",
"151 70 LINE",
"80 70 LINE",
"80 0 LINE",
"720 0 LINE"
);
},
{
closed = 1;
nodes = (
"240 522 LINE",
"355 522 LINE",
"355 70 LINE",
"240 70 LINE"
);
},
{
closed = 1;
nodes = (
"446 522 LINE",
"561 522 LINE",
"561 70 LINE",
"446 70 LINE"
);
}
);
width = 800;
}
);
note = E;
unicode = 0045;
},
{
glyphname = F;
lastChange = "2021-06-26 03:46:56 +0000";
layers = (
{
hints = (
{
horizontal = 1;
place = "{0, 24}";
type = Stem;
},
{
horizontal = 1;
place = "{61, 29}";
type = Stem;
},
{
horizontal = 1;
place = "{118, 32}";
type = Stem;
},
{
horizontal = 1;
place = "{229, 30}";
type = Stem;
},
{
place = "{126, 35}";
type = Stem;
},
{
place = "{388, 37}";
type = Stem;
},
{
horizontal = 1;
place = "{-2, 26}";
type = Stem;
},
{
horizontal = 1;
place = "{59, 31}";
type = Stem;
},
{
horizontal = 1;
place = "{225, 32}";
type = Stem;
},
{
place = "{377, 37}";
type = Stem;
}
);
layerId = "BFEE9DAF-128A-4837-A794-4F7CE36BEEBE";
paths = (
{
closed = 1;
nodes = (
"161 242 LINE",
"126 242 LINE",
"126 150 LINE",
"34 150 LINE",
"34 118 LINE",
"126 118 LINE",
"126 25 LINE",
"161 25 LINE",
"161 118 LINE",
"254 118 LINE",
"254 150 LINE",
"161 150 LINE"
);
},
{
closed = 1;
nodes = (
"493 77 LINE",
"446 77 LINE",
"446 278 LINE",
"385 278 LINE",
"281 102 LINE",
"281 44 LINE",
"413 44 LINE",
"413 -2 LINE",
"446 -2 LINE",
"446 44 LINE",
"490 44 LINE"
);
},
{
closed = 1;
nodes = (
"413 253 LINE",
"413 77 LINE",
"310 77 LINE"
);
}
);
width = 600;
}
);
note = F;
unicode = 0046;
},
{
glyphname = M;
lastChange = "2021-06-26 10:10:01 +0000";
layers = (
{
hints = (
{
horizontal = 1;
place = "{0, 40}";
type = Stem;
},
{
horizontal = 1;
place = "{532, 39}";
type = Stem;
},
{
place = "{38, 160}";
type = Stem;
},
{
place = "{492, 58}";
type = Stem;
},
{
place = "{643, 57}";
type = Stem;
}
);
layerId = "BFEE9DAF-128A-4837-A794-4F7CE36BEEBE";
paths = (
{
closed = 1;
nodes = (
"700 0 LINE",
"700 571 LINE",
"376 571 LINE",
"253 80 LINE",
"149 571 LINE",
"46 571 LINE",
"181 0 LINE",
"290 0 LINE",
"433 571 LINE",
"474 571 LINE",
"474 0 LINE"
);
},
{
closed = 1;
nodes = (
"550 571 LINE",
"626 571 LINE",
"626 0 LINE",
"550 0 LINE"
);
}
);
width = 800;
}
);
note = U;
unicode = 004D;
},
{
glyphname = N;
lastChange = "2021-06-26 10:34:04 +0000";
layers = (
{
hints = (
{
horizontal = 1;
place = "{0, 571}";
type = Stem;
},
{
place = "{256, 141}";
type = Stem;
},
{
place = "{524, 65}";
type = Stem;
}
);
layerId = "BFEE9DAF-128A-4837-A794-4F7CE36BEEBE";
paths = (
{
closed = 1;
nodes = (
"656 571 LINE",
"656 0 LINE",
"569 0 LINE",
"569 571 LINE",
"538 571 LINE",
"371 0 LINE",
"261 0 LINE",
"84 571 LINE",
"195 571 LINE",
"328 80 LINE",
"476 571 LINE"
);
}
);
width = 800;
}
);
note = Y;
unicode = 004E;
},
{
glyphname = Q;
lastChange = "2021-06-26 10:32:04 +0000";
layers = (
{
hints = (
{
horizontal = 1;
place = "{0, 40}";
type = Stem;
},
{
horizontal = 1;
place = "{532, 40}";
type = Stem;
},
{
place = "{368, 64}";
type = Stem;
}
);
layerId = "BFEE9DAF-128A-4837-A794-4F7CE36BEEBE";
paths = (
{
closed = 1;
nodes = (
"270 0 LINE",
"530 0 LINE",
"530 70 LINE",
"447 70 LINE",
"447 522 LINE",
"530 522 LINE",
"530 572 LINE",
"270 572 LINE",
"270 522 LINE",
"353 522 LINE",
"353 70 LINE",
"270 70 LINE"
);
}
);
width = 800;
}
);
note = Q;
unicode = 0051;
},
{
glyphname = R;
lastChange = "2021-06-26 10:31:26 +0000";
layers = (
{
hints = (
{
horizontal = 1;
place = "{0, 40}";
type = Stem;
},
{
horizontal = 1;
place = "{532, 39}";
type = Stem;
},
{
place = "{150, 61}";
type = Stem;
},
{
place = "{544, 193}";
type = Stem;
}
);
layerId = "BFEE9DAF-128A-4837-A794-4F7CE36BEEBE";
paths = (
{
closed = 1;
nodes = (
"130 522 LINE",
"130 70 LINE",
"63 70 LINE",
"63 0 LINE",
"298 0 LINE",
"298 70 LINE",
"221 70 LINE",
"221 522 LINE",
"256 522 LINE",
"409 0 LINE",
"509 0 LINE",
"671 522 LINE",
"737 522 LINE",
"737 571 LINE",
"544 571 LINE",
"544 522 LINE",
"612 522 LINE",
"472 80 LINE",
"359 522 LINE",
"403 522 LINE",
"403 571 LINE",
"63 571 LINE",
"63 522 LINE"
);
}
);
width = 800;
}
);
note = R;
unicode = 0052;
},
{
glyphname = S;
lastChange = "2021-06-26 03:16:32 +0000";
layers = (
{
hints = (
{
horizontal = 1;
place = "{0, 29}";
type = Stem;
},
{
horizontal = 1;
place = "{118, 32}";
type = Stem;
},
{
horizontal = 1;
place = "{237, 30}";
type = Stem;
},
{
place = "{126, 35}";
type = Stem;
},
{
place = "{288, 36}";
type = Stem;
},
{
place = "{433, 33}";
type = Stem;
},
{
horizontal = 1;
place = "{135, 32}";
type = Stem;
},
{
place = "{288, 35}";
type = Stem;
}
);
layerId = "BFEE9DAF-128A-4837-A794-4F7CE36BEEBE";
paths = (
{
closed = 1;
nodes = (
"486 214 LINE",
"479 257 OFFCURVE",
"452 280 OFFCURVE",
"400 280 CURVE SMOOTH",
"321 280 OFFCURVE",
"288 233 OFFCURVE",
"288 123 CURVE SMOOTH",
"288 28 OFFCURVE",
"330 0 OFFCURVE",
"388 0 CURVE SMOOTH",
"453 0 OFFCURVE",
"492 35 OFFCURVE",
"492 92 CURVE SMOOTH",
"492 146 OFFCURVE",
"460 175 OFFCURVE",
"404 175 CURVE SMOOTH",
"373 175 OFFCURVE",
"344 164 OFFCURVE",
"328 148 CURVE",
"329 214 OFFCURVE",
"357 249 OFFCURVE",
"399 249 CURVE SMOOTH",
"423 249 OFFCURVE",
"440 239 OFFCURVE",
"445 214 CURVE"
);
},
{
closed = 1;
nodes = (
"161 242 LINE",
"126 242 LINE",
"126 150 LINE",
"34 150 LINE",
"34 118 LINE",
"126 118 LINE",
"126 25 LINE",
"161 25 LINE",
"161 118 LINE",
"254 118 LINE",
"254 150 LINE",
"161 150 LINE"
);
},
{
closed = 1;
nodes = (
"329 116 LINE",
"341 130 OFFCURVE",
"373 142 OFFCURVE",
"399 142 CURVE SMOOTH",
"432 142 OFFCURVE",
"454 124 OFFCURVE",
"454 85 CURVE SMOOTH",
"454 51 OFFCURVE",
"427 30 OFFCURVE",
"393 30 CURVE SMOOTH",
"357 30 OFFCURVE",
"329 53 OFFCURVE",
"329 112 CURVE SMOOTH"
);
}
);
width = 600;
}
);
note = S;
unicode = 0053;
},
{
glyphname = T;
lastChange = "2021-06-26 10:31:28 +0000";
layers = (
{
hints = (
{
horizontal = 1;
place = "{0, 50}";
type = Stem;
},
{
horizontal = 1;
place = "{532, 39}";
type = Stem;
},
{
place = "{63, 674}";
type = Stem;
}
);
layerId = "BFEE9DAF-128A-4837-A794-4F7CE36BEEBE";
paths = (
{
closed = 1;
nodes = (
"480 522 LINE",
"578 522 LINE",
"402 80 LINE",
"255 522 LINE",
"319 522 LINE",
"319 571 LINE",
"63 571 LINE",
"63 522 LINE",
"129 522 LINE",
"329 0 LINE",
"440 0 LINE",
"639 522 LINE",
"737 522 LINE",
"737 571 LINE",
"480 571 LINE"
);
}
);
width = 800;
}
);
note = T;
unicode = 0054;
},
{
glyphname = U;
lastChange = "2021-06-26 10:31:33 +0000";
layers = (
{
hints = (
{
horizontal = 1;
place = "{0, 40}";
type = Stem;
},
{
horizontal = 1;
place = "{532, 39}";
type = Stem;
},
{
place = "{38, 160}";
type = Stem;
},
{
place = "{492, 58}";
type = Stem;
},
{
place = "{643, 57}";
type = Stem;
}
);
layerId = "BFEE9DAF-128A-4837-A794-4F7CE36BEEBE";
paths = (
{
closed = 1;
nodes = (
"762 70 LINE",
"700 70 LINE",
"700 522 LINE",
"762 522 LINE",
"762 571 LINE",
"321 571 LINE",
"321 522 LINE",
"364 522 LINE",
"253 80 LINE",
"159 522 LINE",
"198 522 LINE",
"198 571 LINE",
"38 571 LINE",
"38 522 LINE",
"58 522 LINE",
"181 0 LINE",
"290 0 LINE",
"421 522 LINE",
"474 522 LINE",
"474 70 LINE",
"421 70 LINE",
"421 0 LINE",
"762 0 LINE"
);
},
{
closed = 1;
nodes = (
"550 522 LINE",
"626 522 LINE",
"626 70 LINE",
"550 70 LINE"
);
}
);
width = 800;
}
);
note = U;
unicode = 0055;
},
{
glyphname = V;
lastChange = "2021-06-26 10:09:45 +0000";
layers = (
{
hints = (
{
horizontal = 1;
place = "{0, 40}";
type = Stem;
},
{
horizontal = 1;
place = "{532, 39}";
type = Stem;
},
{
place = "{150, 61}";
type = Stem;
},
{
place = "{544, 193}";
type = Stem;
}
);
layerId = "BFEE9DAF-128A-4837-A794-4F7CE36BEEBE";
paths = (
{
closed = 1;
nodes = (
"130 571 LINE",
"130 0 LINE",
"221 0 LINE",
"221 571 LINE",
"242 571 LINE",
"409 0 LINE",
"509 0 LINE",
"685 571 LINE",
"628 571 LINE",
"472 80 LINE",
"346 571 LINE"
);
}
);
width = 800;
}
);
note = R;
unicode = 0056;
},
{
glyphname = W;
lastChange = "2021-06-26 10:33:18 +0000";
layers = (
{
hints = (
{
horizontal = 1;
place = "{0, 40}";
type = Stem;
},
{
horizontal = 1;
place = "{532, 39}";
type = Stem;
},
{
place = "{258, 62}";
type = Stem;
},
{
place = "{479, 62}";
type = Stem;
}
);
layerId = "BFEE9DAF-128A-4837-A794-4F7CE36BEEBE";
paths = (
{
closed = 1;
nodes = (
"558 70 LINE",
"558 522 LINE",
"635 522 LINE",
"635 571 LINE",
"165 571 LINE",
"165 522 LINE",
"241 522 LINE",
"241 70 LINE",
"165 70 LINE",
"165 0 LINE",
"635 0 LINE",
"635 70 LINE"
);
},
{
closed = 1;
nodes = (
"332 522 LINE",
"467 522 LINE",
"467 70 LINE",
"332 70 LINE"
);
}
);
width = 800;
}
);
note = W;
unicode = 0057;
},
{
glyphname = X;
lastChange = "2021-06-26 10:30:29 +0000";
layers = (
{
hints = (
{
horizontal = 1;
place = "{0, 40}";
type = Stem;
},
{
horizontal = 1;
place = "{532, 39}";
type = Stem;
},
{
place = "{258, 62}";
type = Stem;
},
{
place = "{479, 62}";
type = Stem;
}
);
layerId = "BFEE9DAF-128A-4837-A794-4F7CE36BEEBE";
paths = (
{
closed = 1;
nodes = (
"558 0 LINE",
"558 571 LINE",
"241 571 LINE",
"241 0 LINE"
);
},
{
closed = 1;
nodes = (
"332 571 LINE",
"467 571 LINE",
"467 0 LINE",
"332 0 LINE"
);
}
);
width = 800;
}
);
note = W;
unicode = 0058;
},
{
glyphname = Y;
lastChange = "2021-06-26 10:31:31 +0000";
layers = (
{
hints = (
{
horizontal = 1;
place = "{0, 571}";
type = Stem;
},
{
place = "{256, 141}";
type = Stem;
},
{
place = "{524, 65}";
type = Stem;
}
);
layerId = "BFEE9DAF-128A-4837-A794-4F7CE36BEEBE";
paths = (
{
closed = 1;
nodes = (
"656 522 LINE",
"656 70 LINE",
"737 70 LINE",
"737 0 LINE",
"492 0 LINE",
"492 70 LINE",
"569 70 LINE",
"569 522 LINE",
"524 522 LINE",
"371 0 LINE",
"261 0 LINE",
"99 522 LINE",
"63 522 LINE",
"63 571 LINE",
"256 571 LINE",
"256 522 LINE",
"208 522 LINE",
"328 80 LINE",
"461 522 LINE",
"397 522 LINE",
"397 571 LINE",
"737 571 LINE",
"737 522 LINE"
);
}
);
width = 800;
}
);
note = Y;
unicode = 0059;
},
{
glyphname = Z;
lastChange = "2021-06-26 10:32:09 +0000";
layers = (
{
hints = (
{
horizontal = 1;
place = "{0, 40}";
type = Stem;
},
{
horizontal = 1;
place = "{532, 40}";
type = Stem;
},
{
place = "{368, 64}";
type = Stem;
}
);
layerId = "BFEE9DAF-128A-4837-A794-4F7CE36BEEBE";
paths = (
{
closed = 1;
nodes = (
"447 0 LINE",
"447 571 LINE",
"353 571 LINE",
"353 0 LINE"
);
}
);
width = 800;
}
);
note = Q;
unicode = 005A;
},
{
glyphname = f;
lastChange = "2021-06-26 03:26:07 +0000";
layers = (
{
hints = (
{
horizontal = 1;
place = "{361, 210}";
type = Stem;
},
{
place = "{28, 83}";
type = Stem;
}
);
layerId = "BFEE9DAF-128A-4837-A794-4F7CE36BEEBE";
paths = (
{
closed = 1;
nodes = (
"63 571 LINE",
"28 431 LINE",
"49 398 OFFCURVE",
"69 354 OFFCURVE",
"90 301 CURVE",
"111 532 LINE"
);
}
);
width = 800;
}
);
note = f;
unicode = 0066;
},
{
glyphname = m;
lastChange = "2021-06-26 10:03:02 +0000";
layers = (
{
hints = (
{
horizontal = 1;
place = "{181, 42}";
type = Stem;
},
{
horizontal = 1;
place = "{376, 43}";
type = Stem;
},
{
place = "{129, 48}";
type = Stem;
},
{
place = "{323, 48}";
type = Stem;
}
);
layerId = "BFEE9DAF-128A-4837-A794-4F7CE36BEEBE";
paths = (
{
closed = 1;
nodes = (
"181 419 OFFCURVE",
"129 370 OFFCURVE",
"129 300 CURVE SMOOTH",
"129 230 OFFCURVE",
"181 181 OFFCURVE",
"251 181 CURVE SMOOTH",
"320 181 OFFCURVE",
"371 230 OFFCURVE",
"371 300 CURVE SMOOTH",
"371 370 OFFCURVE",
"320 419 OFFCURVE",
"251 419 CURVE SMOOTH"
);
},
{
closed = 1;
nodes = (
"293 376 OFFCURVE",
"323 342 OFFCURVE",
"323 300 CURVE SMOOTH",
"323 257 OFFCURVE",
"293 223 OFFCURVE",
"251 223 CURVE SMOOTH",
"206 223 OFFCURVE",
"177 257 OFFCURVE",
"177 300 CURVE SMOOTH",
"177 342 OFFCURVE",
"206 376 OFFCURVE",
"251 376 CURVE SMOOTH"
);
}
);
width = 500;
}
);
note = m;
unicode = 006D;
},
{
glyphname = p;
lastChange = "2021-06-26 10:33:32 +0000";
layers = (
{
hints = (
{
horizontal = 1;
place = "{130, 323}";
type = Stem;
},
{
place = "{132, 516}";
type = Stem;
}
);
layerId = "BFEE9DAF-128A-4837-A794-4F7CE36BEEBE";
paths = (
{
closed = 1;
nodes = (
"142 453 LINE",
"142 398 LINE",
"658 130 LINE",
"658 184 LINE"
);
}
);
width = 800;
}
);
note = p;
unicode = 0070;
},
{
glyphname = r;
lastChange = "2021-06-26 10:32:45 +0000";
layers = (
{
hints = (
{
horizontal = 1;
place = "{160, 343}";
type = Stem;
},
{
place = "{92, 616}";
type = Stem;
}
);
layerId = "BFEE9DAF-128A-4837-A794-4F7CE36BEEBE";
paths = (
{
closed = 1;
nodes = (
"92 160 LINE",
"708 448 LINE",
"708 503 LINE",
"92 214 LINE"
);
}
);
width = 800;
}
);
note = r;
unicode = 0072;
},
{
glyphname = s;
layers = (
{
hints = (
{
horizontal = 1;
place = "{532, 161}";
type = Stem;
},
{
place = "{63, 201}";
type = Stem;
}
);
layerId = "BFEE9DAF-128A-4837-A794-4F7CE36BEEBE";
paths = (
{
closed = 1;
nodes = (
"176 693 LINE",
"264 693 LINE",
"104 532 LINE",
"63 532 LINE",
"63 571 LINE"
);
}
);
width = 800;
}
);
note = s;
unicode = 0073;
},
{
glyphname = one;
lastChange = "2021-06-26 03:31:33 +0000";
layers = (
{
hints = (
{
horizontal = 1;
place = "{312, 26}";
type = Stem;
},
{
place = "{111, 38}";
type = Stem;
}
);
layerId = "BFEE9DAF-128A-4837-A794-4F7CE36BEEBE";
paths = (
{
closed = 1;
nodes = (
"172 592 LINE",
"129 592 LINE",
"90 569 LINE",
"104 556 LINE",
"128 561 LINE",
"128 340 LINE",
"73 340 LINE",
"73 312 LINE",
"227 312 LINE",
"227 340 LINE",
"172 340 LINE"
);
}
);
width = 300;
}
);
note = one;
unicode = 0031;
},
{
glyphname = two;
lastChange = "2021-06-26 03:48:09 +0000";
layers = (
{
hints = (
{
horizontal = 1;
place = "{308, 32}";
type = Stem;
},
{
horizontal = 1;
place = "{539, 32}";
type = Stem;
},
{
place = "{37, 45}";
type = Stem;
},
{
place = "{161, 42}";
type = Stem;
},
{
place = "{39.5, 21.5}";
type = Stem;
},
{
place = "{37, 176}";
type = Stem;
}
);
layerId = "BFEE9DAF-128A-4837-A794-4F7CE36BEEBE";
paths = (
{
closed = 1;
nodes = (
"99 342 LINE",
"215 434 OFFCURVE",
"238 465 OFFCURVE",
"238 516 CURVE SMOOTH",
"238 559 OFFCURVE",
"210 588 OFFCURVE",
"148 588 CURVE SMOOTH",
"122 588 OFFCURVE",
"70 585 OFFCURVE",
"49 553 CURVE",
"50 529 LINE",
"85 553 OFFCURVE",
"190 585 OFFCURVE",
"189 511 CURVE SMOOTH",
"189 471 OFFCURVE",
"142 423 OFFCURVE",
"47 346 CURVE",
"47 308 LINE",
"249 308 LINE",
"249 342 LINE"
);
}
);
width = 300;
}
);
note = two;
unicode = 0032;
},
{
glyphname = three;
lastChange = "2021-06-26 03:47:41 +0000";
layers = (
{
hints = (
{
horizontal = 1;
place = "{306, 32}";
type = Stem;
},
{
horizontal = 1;
place = "{424, 21}";
type = Stem;
},
{
horizontal = 1;
place = "{540, 31}";
type = Stem;
},
{
place = "{38, 36}";
type = Stem;
},
{
place = "{169, 43}";
type = Stem;
},
{
place = "{57, 17}";
type = Stem;
},
{
place = "{161, 41}";
type = Stem;
},
{
horizontal = 1;
place = "{424, 36}";
type = Stem;
}
);
layerId = "BFEE9DAF-128A-4837-A794-4F7CE36BEEBE";
paths = (
{
closed = 1;
nodes = (
"210 461 OFFCURVE",
"237 481 OFFCURVE",
"237 522 CURVE SMOOTH",
"237 563 OFFCURVE",
"203 586 OFFCURVE",
"148 586 CURVE SMOOTH",
"118 586 OFFCURVE",
"97 581 OFFCURVE",
"70 569 CURVE",
"70 542 LINE",
"89 540 LINE",
"102 549 LINE",
"115 553 OFFCURVE",
"128 555 OFFCURVE",
"142 557 CURVE",
"173 557 OFFCURVE",
"199 541 OFFCURVE",
"199 515 CURVE SMOOTH",
"199 481 OFFCURVE",
"162 469 OFFCURVE",
"125 469 CURVE SMOOTH",
"108 469 LINE",
"102 441 LINE",
"125 441 LINE SMOOTH",
"179 441 OFFCURVE",
"209 413 OFFCURVE",
"209 383 CURVE SMOOTH",
"209 354 OFFCURVE",
"184 340 OFFCURVE",
"146 340 CURVE SMOOTH",
"108 340 OFFCURVE",
"89 345 OFFCURVE",
"89 380 CURVE",
"48 378 LINE",
"48 329 OFFCURVE",
"81 306 OFFCURVE",
"142 306 CURVE SMOOTH",
"208 306 OFFCURVE",
"248 337 OFFCURVE",
"248 384 CURVE SMOOTH",
"248 424 OFFCURVE",
"217 448 OFFCURVE",
"180 453 CURVE"
);
}
);
width = 300;
}
);
note = three;
unicode = 0033;
},
{
glyphname = four;
lastChange = "2021-06-26 03:46:48 +0000";
layers = (
{
hints = (
{
horizontal = 1;
place = "{312, 26}";
type = Stem;
},
{
horizontal = 1;
place = "{373, 31}";
type = Stem;
},
{
horizontal = 1;
place = "{539, 32}";
type = Stem;
},
{
place = "{139, 37}";
type = Stem;
}
);
layerId = "BFEE9DAF-128A-4837-A794-4F7CE36BEEBE";
paths = (
{
closed = 1;
nodes = (
"255 391 LINE",
"208 391 LINE",
"208 592 LINE",
"147 592 LINE",
"43 416 LINE",
"43 358 LINE",
"175 358 LINE",
"175 312 LINE",
"208 312 LINE",
"208 358 LINE",
"252 358 LINE"
);
},
{
closed = 1;
nodes = (
"175 567 LINE",
"175 391 LINE",
"72 391 LINE"
);
}
);
width = 300;
}
);
note = four;
unicode = 0034;
},
{
glyphname = seven;
lastChange = "2021-06-26 03:18:43 +0000";
layers = (
{
hints = (
{
horizontal = 1;
place = "{0, 21}";
target = up;
type = BottomGhost;
},
{
horizontal = 1;
place = "{224, 35}";
type = Stem;
},
{
place = "{41, 30}";
type = Stem;
},
{
place = "{175, 34}";
type = Stem;
}
);
layerId = "BFEE9DAF-128A-4837-A794-4F7CE36BEEBE";
paths = (
{
closed = 1;
nodes = (
"51 186 LINE",
"84 186 LINE",
"87 224 LINE",
"205 224 LINE",
"144 138 OFFCURVE",
"128 103 OFFCURVE",
"102 0 CURVE",
"150 0 LINE",
"166 93 OFFCURVE",
"187 144 OFFCURVE",
"244 221 CURVE",
"244 259 LINE",
"51 259 LINE"
);
}
);
width = 300;
}
);
note = seven;
unicode = 0037;
},
{
glyphname = nine;
lastChange = "2021-06-26 03:19:56 +0000";
layers = (
{
hints = (
{
horizontal = 1;
place = "{0, 32}";
type = Stem;
},
{
horizontal = 1;
place = "{100, 34}";
type = Stem;
},
{
horizontal = 1;
place = "{234, 33}";
type = Stem;
},
{
place = "{36, 36}";
type = Stem;
},
{
place = "{176, 38}";
type = Stem;
},
{
place = "{178, 36}";
type = Stem;
}
);
layerId = "BFEE9DAF-128A-4837-A794-4F7CE36BEEBE";
paths = (
{
closed = 1;
nodes = (
"53 63 LINE",
"59 22 OFFCURVE",
"87 0 OFFCURVE",
"139 0 CURVE SMOOTH",
"219 0 OFFCURVE",
"251 45 OFFCURVE",
"251 150 CURVE SMOOTH",
"251 240 OFFCURVE",
"208 267 OFFCURVE",
"151 267 CURVE SMOOTH",
"86 267 OFFCURVE",
"46 234 OFFCURVE",
"46 178 CURVE SMOOTH",
"46 128 OFFCURVE",
"78 100 OFFCURVE",
"135 100 CURVE SMOOTH",
"166 100 OFFCURVE",
"192 109 OFFCURVE",
"210 124 CURVE",
"207 61 OFFCURVE",
"183 32 OFFCURVE",
"140 32 CURVE SMOOTH",
"115 32 OFFCURVE",
"101 39 OFFCURVE",
"96 63 CURVE"
);
},
{
closed = 1;
nodes = (
"207 158 LINE",
"196 145 OFFCURVE",
"166 134 OFFCURVE",
"140 134 CURVE SMOOTH",
"106 134 OFFCURVE",
"87 149 OFFCURVE",
"87 185 CURVE SMOOTH",
"87 218 OFFCURVE",
"113 234 OFFCURVE",
"146 234 CURVE SMOOTH",
"183 234 OFFCURVE",
"207 218 OFFCURVE",
"207 161 CURVE SMOOTH"
);
}
);
width = 300;
}
);
note = nine;
unicode = 0039;
},
{
glyphname = comma;
lastChange = "2021-06-26 10:36:49 +0000";
layers = (
{
layerId = "BFEE9DAF-128A-4837-A794-4F7CE36BEEBE";
paths = (
{
closed = 1;
nodes = (
"239 76 LINE",
"182 -100 LINE",
"137 -100 LINE",
"167 76 LINE"
);
}
);
width = 400;
}
);
unicode = 002C;
},
{
glyphname = semicolon;
lastChange = "2021-06-26 10:36:57 +0000";
layers = (
{
layerId = "BFEE9DAF-128A-4837-A794-4F7CE36BEEBE";
paths = (
{
closed = 1;
nodes = (
"222 285 OFFCURVE",
"240 303 OFFCURVE",
"240 325 CURVE SMOOTH",
"240 347 OFFCURVE",
"222 365 OFFCURVE",
"200 365 CURVE SMOOTH",
"178 365 OFFCURVE",
"160 347 OFFCURVE",
"160 325 CURVE SMOOTH",
"160 303 OFFCURVE",
"178 285 OFFCURVE",
"200 285 CURVE SMOOTH"
);
},
{
closed = 1;
nodes = (
"239 76 LINE",
"182 -100 LINE",
"137 -100 LINE",
"167 76 LINE"
);
}
);
width = 400;
}
);
unicode = 003B;
},
{
glyphname = slash;
lastChange = "2021-06-26 10:21:59 +0000";
layers = (
{
hints = (
{
horizontal = 1;
place = "{-100, 731}";
type = Stem;
},
{
place = "{73, 339}";
type = Stem;
}
);
layerId = "BFEE9DAF-128A-4837-A794-4F7CE36BEEBE";
paths = (
{
closed = 1;
nodes = (
"80 -100 LINE",
"147 -100 LINE",
"418 631 LINE",
"350 631 LINE"
);
}
);
width = 500;
}
);
note = slash;
unicode = 002F;
},
{
glyphname = parenleft;
layers = (
{
hints = (
{
horizontal = 1;
place = "{-100, 731}";
type = Stem;
},
{
place = "{104, 82}";
type = Stem;
}
);
layerId = "BFEE9DAF-128A-4837-A794-4F7CE36BEEBE";
paths = (
{
closed = 1;
nodes = (
"254 631 LINE",
"54 471 OFFCURVE",
"54 60 OFFCURVE",
"254 -100 CURVE",
"336 -100 LINE",
"136 60 OFFCURVE",
"136 471 OFFCURVE",
"336 631 CURVE"
);
}
);
width = 400;
}
);
note = parenleft;
unicode = 0028;
},
{
glyphname = parenright;
layers = (
{
hints = (
{
horizontal = 1;
place = "{-100, 731}";
type = Stem;
},
{
place = "{64, 232}";
type = Stem;
}
);
layerId = "BFEE9DAF-128A-4837-A794-4F7CE36BEEBE";
paths = (
{
closed = 1;
nodes = (
"146 631 LINE",
"346 471 OFFCURVE",
"346 60 OFFCURVE",
"146 -100 CURVE",
"64 -100 LINE",
"264 60 OFFCURVE",
"264 471 OFFCURVE",
"64 631 CURVE"
);
}
);
width = 400;
}
);
note = parenright;
unicode = 0029;
},
{
glyphname = braceleft;
lastChange = "2021-06-26 03:43:28 +0000";
layers = (
{
hints = (
{
horizontal = 1;
place = "{-100, 50}";
type = Stem;
},
{
horizontal = 1;
place = "{245, 39}";
type = Stem;
},
{
horizontal = 1;
place = "{581, 50}";
type = Stem;
},
{
place = "{134, 72}";
type = Stem;
},
{
horizontal = 1;
place = "{286, 39}";
type = Stem;
},
{
place = "{74, 32}";
type = Stem;
}
);
layerId = "BFEE9DAF-128A-4837-A794-4F7CE36BEEBE";
paths = (
{
closed = 1;
nodes = (
"304 631 LINE",
"174 631 OFFCURVE",
"135 564 OFFCURVE",
"134 531 CURVE SMOOTH",
"134 316 OFFCURVE",
"142 325 OFFCURVE",
"74 325 CURVE",
"74 245 LINE",
"144 245 OFFCURVE",
"134 254 OFFCURVE",
"134 0 CURVE SMOOTH",
"135 -33 OFFCURVE",
"144 -100 OFFCURVE",
"304 -100 CURVE",
"336 -40 LINE",
"299 -40 OFFCURVE",
"206 -40 OFFCURVE",
"206 10 CURVE SMOOTH",
"206 244 OFFCURVE",
"206 244 OFFCURVE",
"166 284 CURVE",
"166 286 LINE",
"206 326 OFFCURVE",
"206 326 OFFCURVE",
"206 521 CURVE SMOOTH",
"206 571 OFFCURVE",
"293 571 OFFCURVE",
"336 571 CURVE"
);
}
);
width = 400;
}
);
note = braceleft;
unicode = 007B;
},
{
glyphname = braceright;
lastChange = "2021-06-26 03:43:34 +0000";
layers = (
{
hints = (
{
horizontal = 1;
place = "{-100, 731}";
type = Stem;
},
{
place = "{64, 292}";
type = Stem;
}
);
layerId = "BFEE9DAF-128A-4837-A794-4F7CE36BEEBE";
paths = (
{
closed = 1;
nodes = (
"96 631 LINE",
"226 631 OFFCURVE",
"265 564 OFFCURVE",
"266 531 CURVE SMOOTH",
"266 385 OFFCURVE",
"258 325 OFFCURVE",
"356 325 CURVE",
"356 245 LINE",
"256 245 OFFCURVE",
"266 185 OFFCURVE",
"266 0 CURVE SMOOTH",
"265 -33 OFFCURVE",
"226 -100 OFFCURVE",
"96 -100 CURVE",
"64 -40 LINE",
"101 -40 OFFCURVE",
"194 -40 OFFCURVE",
"194 10 CURVE SMOOTH",
"194 244 OFFCURVE",
"194 244 OFFCURVE",
"234 284 CURVE",
"234 286 LINE",
"194 326 OFFCURVE",
"194 326 OFFCURVE",
"194 521 CURVE SMOOTH",
"194 571 OFFCURVE",
"107 571 OFFCURVE",
"64 571 CURVE"
);
}
);
width = 400;
}
);
note = braceright;
unicode = 007D;
},
{
glyphname = bracketleft;
layers = (
{
hints = (
{
horizontal = 1;
place = "{0, 21}";
target = up;
type = BottomGhost;
},
{
place = "{104, 68}";
type = Stem;
}
);
layerId = "BFEE9DAF-128A-4837-A794-4F7CE36BEEBE";
paths = (
{
closed = 1;
nodes = (
"104 531 LINE",
"104 0 LINE",
"254 -100 LINE",
"336 -70 LINE",
"172 34 LINE",
"172 497 LINE",
"336 601 LINE",
"254 631 LINE"
);
}
);
width = 400;
}
);
note = bracketleft;
unicode = 005B;
},
{
glyphname = bracketright;
layers = (
{
hints = (
{
horizontal = 1;
place = "{-100, 731}";
type = Stem;
},
{
place = "{64, 232}";
type = Stem;
}
);
layerId = "BFEE9DAF-128A-4837-A794-4F7CE36BEEBE";
paths = (
{
closed = 1;
nodes = (
"296 531 LINE",
"296 0 LINE",
"146 -100 LINE",
"64 -70 LINE",
"228 34 LINE",
"228 497 LINE",
"64 601 LINE",
"146 631 LINE"
);
}
);
width = 400;
}
);
note = bracketright;
unicode = 005D;
},
{
glyphname = at;
lastChange = "2021-06-26 10:17:27 +0000";
layers = (
{
hints = (
{
horizontal = 1;
place = "{0, 60}";
type = Stem;
},
{
horizontal = 1;
place = "{138, 59}";
type = Stem;
},
{
horizontal = 1;
place = "{352, 59}";
type = Stem;
},
{
horizontal = 1;
place = "{517, 64}";
type = Stem;
},
{
place = "{49, 74}";
type = Stem;
},
{
place = "{202, 76}";
type = Stem;
},
{
place = "{377, 74}";
type = Stem;
}
);
layerId = "BFEE9DAF-128A-4837-A794-4F7CE36BEEBE";
paths = (
{
closed = 1;
nodes = (
"461 405 OFFCURVE",
"373 484 OFFCURVE",
"260 484 CURVE",
"138 484 OFFCURVE",
"39 388 OFFCURVE",
"39 269 CURVE",
"39 151 OFFCURVE",
"136 60 OFFCURVE",
"262 60 CURVE",
"305 60 OFFCURVE",
"334 67 OFFCURVE",
"395 96 CURVE",
"387 114 LINE",
"340 93 OFFCURVE",
"308 83 OFFCURVE",
"267 83 CURVE",
"163 83 OFFCURVE",
"90 161 OFFCURVE",
"90 267 CURVE",
"90 324 OFFCURVE",
"111 382 OFFCURVE",
"146 419 CURVE",
"177 448 OFFCURVE",
"217 466 OFFCURVE",
"261 466 CURVE",
"356 466 OFFCURVE",
"436 389 OFFCURVE",
"436 297 CURVE",
"436 236 OFFCURVE",
"398 176 OFFCURVE",
"357 176 CURVE",
"341 176 OFFCURVE",
"333 185 OFFCURVE",
"333 206 CURVE",
"333 209 OFFCURVE",
"334 212 OFFCURVE",
"334 216 CURVE",
"374 373 LINE",
"332 373 LINE",
"326 349 LINE",
"313 375 OFFCURVE",
"304 381 OFFCURVE",
"284 381 CURVE",
"256 381 OFFCURVE",
"235 371 OFFCURVE",
"213 350 CURVE",
"182 318 OFFCURVE",
"163 271 OFFCURVE",
"163 226 CURVE",
"163 187 OFFCURVE",
"187 158 OFFCURVE",
"217 158 CURVE",
"244 158 OFFCURVE",
"272 173 OFFCURVE",
"293 202 CURVE",
"297 174 OFFCURVE",
"318 157 OFFCURVE",
"348 157 CURVE",
"409 157 OFFCURVE",
"461 225 OFFCURVE",
"461 304 CURVE"
);
},
{
closed = 1;
nodes = (
"315 285 OFFCURVE",
"305 248 OFFCURVE",
"289 219 CURVE",
"276 197 OFFCURVE",
"260 184 OFFCURVE",
"244 184 CURVE",
"220 184 OFFCURVE",
"206 204 OFFCURVE",
"206 235 CURVE",
"206 269 OFFCURVE",
"218 299 OFFCURVE",
"239 323 CURVE",
"255 342 OFFCURVE",
"275 354 OFFCURVE",
"292 353 CURVE",
"308 353 OFFCURVE",
"316 337 OFFCURVE",
"315 314 CURVE"
);
}
);
width = 500;
}
);
note = at;
unicode = 0040;
},
